<svg width="28" height="28" viewBox="0 0 28 28" fill="none" xmlns="http://www.w3.org/2000/svg">
<g filter="url(#filter0_d_622_1092)">
<path d="M14 0C19.5228 0 24 4.47715 24 10C24 15.5228 19.5228 20 14 20C8.47715 20 4 15.5228 4 10C4 4.47715 8.47715 0 14 0ZM16.71 4.70996C16.32 4.32001 15.6898 4.31998 15.2998 4.70996L10.71 9.2998C10.32 9.68979 10.32 10.32 10.71 10.71L15.2998 15.2998C15.6898 15.6898 16.32 15.6898 16.71 15.2998C17.0899 14.9098 17.0999 14.2699 16.71 13.8799L12.8301 10L16.71 6.12012C17.1 5.73012 17.1 5.09996 16.71 4.70996Z" fill="#FAFAFA" fill-opacity="1" shape-rendering="crispEdges"/>
</g>
<defs>
<filter id="filter0_d_622_1092" x="0" y="0" width="28" height="28" filterUnits="userSpaceOnUse" color-interpolation-filters="sRGB">
<feFlood flood-opacity="0" result="BackgroundImageFix"/>
<feColorMatrix in="SourceAlpha" type="matrix" values="0 0 0 0 0 0 0 0 0 0 0 0 0 0 0 0 0 0 127 0" result="hardAlpha"/>
<feOffset dy="4"/>
<feGaussianBlur stdDeviation="2"/>
<feComposite in2="hardAlpha" operator="out"/>
<feColorMatrix type="matrix" values="0 0 0 0 0 0 0 0 0 0 0 0 0 0 0 0 0 0 0.25 0"/>
<feBlend mode="normal" in2="BackgroundImageFix" result="effect1_dropShadow_622_1092"/>
<feBlend mode="normal" in="SourceGraphic" in2="effect1_dropShadow_622_1092" result="shape"/>
</filter>
</defs>
</svg>
