<svg width="30" height="30" viewBox="-1 -1 32 32" fill="none" xmlns="http://www.w3.org/2000/svg">
<path d="M14.625 0C22.7025 0 29.25 6.5475 29.25 14.625C29.2523 16.6194 28.8454 18.5929 28.0547 20.4238C27.2639 22.2549 26.1059 23.9047 24.6523 25.2705C21.942 27.8308 18.3534 29.255 14.625 29.25C10.8966 29.255 7.30805 27.8308 4.59766 25.2705C3.14414 23.9047 1.98609 22.2549 1.19531 20.4238C0.404649 18.5929 -0.00230759 16.6194 0 14.625C0 6.5475 6.5475 5.66894e-06 14.625 0ZM14.625 19.125C12.9385 19.1233 11.2732 19.5014 9.75293 20.2314C8.23259 20.9616 6.89586 22.0254 5.84277 23.3428C6.99172 24.5033 8.35959 25.424 9.86719 26.0518C11.3748 26.6795 12.9919 27.0021 14.625 27C16.2581 27.0021 17.8752 26.6795 19.3828 26.0518C20.8904 25.424 22.2583 24.5033 23.4072 23.3428C22.3541 22.0254 21.0174 20.9616 19.4971 20.2314C17.9768 19.5014 16.3115 19.1233 14.625 19.125ZM14.625 4.5C13.1332 4.5 11.7024 5.09257 10.6475 6.14746C9.59257 7.20235 9 8.63316 9 10.125C9 11.6168 9.59257 13.0476 10.6475 14.1025C11.7024 15.1574 13.1332 15.75 14.625 15.75C16.1168 15.75 17.5476 15.1574 18.6025 14.1025C19.6574 13.0476 20.25 11.6168 20.25 10.125C20.25 8.63316 19.6574 7.20235 18.6025 6.14746C17.5476 5.09257 16.1168 4.5 14.625 4.5Z" fill="black"/>
<path d="M14.625 0C22.7025 0 29.25 6.5475 29.25 14.625C29.2523 16.6194 28.8454 18.5929 28.0547 20.4238C27.2639 22.2549 26.1059 23.9047 24.6523 25.2705C21.942 27.8308 18.3534 29.255 14.625 29.25C10.8966 29.255 7.30805 27.8308 4.59766 25.2705C3.14414 23.9047 1.98609 22.2549 1.19531 20.4238C0.404649 18.5929 -0.00230759 16.6194 0 14.625C0 6.5475 6.5475 5.66894e-06 14.625 0ZM14.625 19.125C12.9385 19.1233 11.2732 19.5014 9.75293 20.2314C8.23259 20.9616 6.89586 22.0254 5.84277 23.3428C6.99172 24.5033 8.35959 25.424 9.86719 26.0518C11.3748 26.6795 12.9919 27.0021 14.625 27C16.2581 27.0021 17.8752 26.6795 19.3828 26.0518C20.8904 25.424 22.2583 24.5033 23.4072 23.3428C22.3541 22.0254 21.0174 20.9616 19.4971 20.2314C17.9768 19.5014 16.3115 19.1233 14.625 19.125ZM14.625 4.5C13.1332 4.5 11.7024 5.09257 10.6475 6.14746C9.59257 7.20235 9 8.63316 9 10.125C9 11.6168 9.59257 13.0476 10.6475 14.1025C11.7024 15.1574 13.1332 15.75 14.625 15.75C16.1168 15.75 17.5476 15.1574 18.6025 14.1025C19.6574 13.0476 20.25 11.6168 20.25 10.125C20.25 8.63316 19.6574 7.20235 18.6025 6.14746C17.5476 5.09257 16.1168 4.5 14.625 4.5Z" stroke="black"/>
</svg>
