<svg width="23" height="26" viewBox="0 0 23 26" fill="none" xmlns="http://www.w3.org/2000/svg">
<path d="M15.3157 20.3846V21.3077C15.3157 22.287 14.9137 23.2261 14.1983 23.9185C13.4828 24.611 12.5125 25 11.5007 25C10.4889 25 9.51858 24.611 8.80314 23.9185C8.0877 23.2261 7.68577 22.287 7.68577 21.3077V20.3846M21.7343 18.5056C20.2036 16.6923 19.1229 15.7692 19.1229 10.7702C19.1229 6.19231 16.7075 4.56135 14.7196 3.76923C14.4555 3.66423 14.2069 3.42308 14.1265 3.16058C13.7778 2.01192 12.8002 1 11.5007 1C10.2012 1 9.22307 2.0125 8.87794 3.16173C8.79746 3.42712 8.5489 3.66423 8.28483 3.76923C6.2945 4.5625 3.88155 6.18769 3.88155 10.7702C3.87857 15.7692 2.79786 16.6923 1.26712 18.5056C0.632882 19.2567 1.18843 20.3846 2.29775 20.3846H20.7096C21.813 20.3846 22.365 19.2533 21.7343 18.5056Z" stroke="black" stroke-width="2" stroke-linecap="round" stroke-linejoin="round"/>
</svg>
