<svg width="86" height="41" viewBox="0 0 86 41" fill="none" xmlns="http://www.w3.org/2000/svg">
<path d="M74.501 7.93188C75.0702 7.93205 75.5226 8.32625 75.8047 8.85181H75.8037L79.7988 16.1477H79.7979C80.168 16.8201 80.2969 17.5286 80.0645 18.1155C79.8156 18.7435 79.219 19.0754 78.4961 19.0754H78.0186L81.4346 25.342C81.9199 26.2134 82.0774 27.1045 81.7949 27.8245C81.4959 28.5866 80.7701 28.9983 79.8574 28.9983H75.7188V33.4993C75.7188 33.8581 75.605 34.2009 75.4033 34.4641C75.2021 34.7266 74.8874 34.9367 74.5 34.9368C74.1127 34.9366 73.7979 34.7265 73.5967 34.4641C73.3949 34.2009 73.2812 33.8582 73.2812 33.4993V28.9983H69.1436C68.2309 28.9983 67.5051 28.5866 67.2061 27.8245C66.9236 27.1045 67.081 26.2134 67.5664 25.342L70.9824 19.0754H70.5049C69.7821 19.0754 69.1853 18.7434 68.9365 18.1155C68.7041 17.5285 68.8328 16.8192 69.2031 16.1467L73.1992 8.8479C73.4815 8.32416 73.9329 7.93188 74.501 7.93188Z" fill="#4A7A4C" stroke="#4A7A4C"/>
<path d="M9.72 14.32H6.52V25.28H9.72V14.32ZM2.28 29.84C1.88 29.84 1.44 29.04 1.44 28.64V11C1.44 10.52 1.68 9.84 2.48 9.76H18.48C18.96 9.76 19.28 10.4 19.28 10.8V13.4C19.28 13.8 18.76 14.32 18.36 14.32H14.8V25.28H18.44C18.92 25.28 19.24 25.92 19.24 26.32V28.92C19.24 29.32 18.72 29.84 18.28 29.84H2.28ZM31.04 22.28H28.8V33.84C28.8 34.36 28.36 34.88 27.68 34.88H24.76C24.08 34.88 23.72 34.4 23.72 33.84V8.2C23.72 7.6 24.08 7.08 24.76 7.08H27.68C28.36 7.08 28.8 7.6 28.8 8.2V17.56H31.04C31.76 17.56 32.16 17.96 32.16 18.68V21.16C32.16 21.88 31.72 22.28 31.04 22.28ZM41.1184 18.44C40.6784 18.68 39.8784 18.92 39.3584 18.24L37.7984 16.24C37.3584 15.72 37.5584 14.88 38.0784 14.68L45.2384 9.68V5.32C45.2384 4.8 45.5584 4.16 46.1584 4.16H49.3184C49.9184 4.16 50.3184 4.72 50.3184 5.2V9.68L57.4784 14.64C57.9984 14.84 58.1984 15.68 57.7584 16.2L56.1984 18.2C55.6784 18.88 54.8784 18.64 54.4384 18.4L47.7584 13.84L41.1184 18.44ZM59.5584 19.8C60.0384 19.8 60.3584 20.44 60.3584 20.84V23.6C60.3584 24 59.8384 24.52 59.3984 24.52H50.3184V26.8H56.4784C56.9584 26.8 57.2784 27.44 57.2784 27.84V30.36C57.2784 30.76 56.7584 31.28 56.3184 31.28H54.4784V34.96H56.4784C56.9584 34.96 57.2784 35.6 57.2784 36V38.52C57.2784 38.92 56.7584 39.44 56.3184 39.44H39.0384C38.5984 39.44 38.0784 38.92 38.0784 38.52V36C38.0784 35.6 38.3984 34.96 38.8784 34.96H40.7984V31.28H39.0384C38.5984 31.28 38.0784 30.76 38.0784 30.36V27.84C38.0784 27.44 38.3984 26.8 38.8784 26.8H45.2384V24.52H36.1184C35.7184 24.52 35.1984 24 35.1984 23.6V20.84C35.1984 20.44 35.5184 19.8 35.9984 19.8H59.5584ZM45.5984 31.28V34.96H49.6784V31.28H45.5984Z" fill="black"/>
</svg>
