<svg width="311" height="231" viewBox="0 0 311 231" fill="none" xmlns="http://www.w3.org/2000/svg">
<rect y="184.31" width="99.8931" height="30.9528" rx="10" fill="url(#paint0_radial_890_6962)"/>
<rect x="50.6504" y="153.357" width="99.8931" height="30.9528" rx="10" fill="url(#paint1_radial_890_6962)"/>
<rect x="105.521" y="199.786" width="99.8931" height="30.9528" rx="10" fill="url(#paint2_radial_890_6962)"/>
<rect x="150.543" y="153.357" width="99.8931" height="30.9528" rx="10" fill="url(#paint3_radial_890_6962)"/>
<rect x="211.042" y="192.751" width="99.8931" height="30.9528" rx="10" fill="url(#paint4_radial_890_6962)"/>
<path d="M96.5749 162.235C96.5749 165.551 98.6884 168.301 101.235 168.303C103.783 168.303 105.896 165.552 105.896 162.235V129.879H96.5749V162.235Z" fill="url(#paint5_radial_890_6962)"/>
<path d="M106.837 4.24721C103.792 -1.41574 98.6899 -1.41574 95.645 4.24721L69.7322 51.493C65.4487 59.2569 68.0029 65.6467 75.3338 65.6467H83.8929L59.1116 111.019C53.3326 121.374 56.6876 129.868 66.5057 129.868H135.976C145.794 129.868 149.149 121.373 143.37 111.019L118.589 65.6467H127.148C134.479 65.6467 137.033 59.2568 132.75 51.493L106.837 4.24721Z" fill="url(#paint6_radial_890_6962)"/>
<path d="M196.467 162.235C196.467 165.551 198.581 168.301 201.128 168.303C203.676 168.303 205.788 165.552 205.788 162.235V129.879H196.467V162.235Z" fill="url(#paint7_radial_890_6962)"/>
<path d="M206.73 4.24721C203.685 -1.41574 198.582 -1.41574 195.538 4.24721L169.625 51.493C165.341 59.2569 167.896 65.6467 175.226 65.6467H183.786L159.004 111.019C153.225 121.374 156.58 129.868 166.398 129.868H235.869C245.686 129.868 249.041 121.373 243.263 111.019L218.482 65.6467H227.041C234.372 65.6467 236.926 59.2568 232.642 51.493L206.73 4.24721Z" fill="url(#paint8_radial_890_6962)"/>
<path d="M256.966 201.63C256.966 204.946 259.08 207.696 261.627 207.697C264.175 207.697 266.288 204.946 266.288 201.63V169.274H256.966V201.63Z" fill="#4A7A4C"/>
<path d="M256.966 201.63C256.966 204.946 259.08 207.696 261.627 207.697C264.175 207.697 266.288 204.946 266.288 201.63V169.274H256.966V201.63Z" fill="url(#paint9_radial_890_6962)"/>
<path d="M267.229 43.6417C264.184 37.9787 259.081 37.9787 256.037 43.6417L230.124 90.8874C225.84 98.6513 228.395 105.041 235.725 105.041H244.285L219.503 150.413C213.724 160.768 217.079 169.262 226.897 169.262H296.368C306.185 169.262 309.54 160.768 303.762 150.413L278.981 105.041H287.54C294.871 105.041 297.425 98.6512 293.141 90.8874L267.229 43.6417Z" fill="#4A7A4C"/>
<path d="M267.229 43.6417C264.184 37.9787 259.081 37.9787 256.037 43.6417L230.124 90.8874C225.84 98.6513 228.395 105.041 235.725 105.041H244.285L219.503 150.413C213.724 160.768 217.079 169.262 226.897 169.262H296.368C306.185 169.262 309.54 160.768 303.762 150.413L278.981 105.041H287.54C294.871 105.041 297.425 98.6512 293.141 90.8874L267.229 43.6417Z" fill="url(#paint10_radial_890_6962)"/>
<path d="M151.446 208.664C151.446 211.98 153.559 214.731 156.106 214.732C158.654 214.732 160.767 211.981 160.767 208.664V176.308H151.446V208.664Z" fill="url(#paint11_radial_890_6962)"/>
<path d="M161.708 50.6764C158.663 45.0134 153.561 45.0134 150.516 50.6764L124.603 97.9222C120.32 105.686 122.874 112.076 130.205 112.076H138.764L113.983 157.448C108.204 167.803 111.559 176.297 121.377 176.297H190.847C200.665 176.297 204.02 167.802 198.241 157.448L173.46 112.076H182.019C189.35 112.076 191.904 105.686 187.621 97.9222L161.708 50.6764Z" fill="url(#paint12_radial_890_6962)"/>
<path d="M45.9245 193.188C45.9245 196.504 48.038 199.254 50.585 199.255C53.1327 199.255 55.2455 196.505 55.2455 193.188V160.832H45.9245V193.188Z" fill="url(#paint13_radial_890_6962)"/>
<path d="M56.1866 35.2C53.1417 29.537 48.0395 29.537 44.9946 35.2L19.0818 82.4458C14.7983 90.2096 17.3526 96.5994 24.6834 96.5994H33.2426L8.46123 141.971C2.6822 152.327 6.03717 160.821 15.8553 160.821H85.3259C95.1435 160.82 98.4984 152.326 92.72 141.971L67.9387 96.5994H76.4979C83.8286 96.5994 86.3828 90.2096 82.0994 82.4458L56.1866 35.2Z" fill="url(#paint14_radial_890_6962)"/>
<defs>
<radialGradient id="paint0_radial_890_6962" cx="0" cy="0" r="1" gradientUnits="userSpaceOnUse" gradientTransform="translate(49.9465 199.786) scale(49.9465 15.4764)">
<stop stop-color="#F8FE53" stop-opacity="0.5"/>
<stop offset="1" stop-color="#606060" stop-opacity="0"/>
</radialGradient>
<radialGradient id="paint1_radial_890_6962" cx="0" cy="0" r="1" gradientUnits="userSpaceOnUse" gradientTransform="translate(100.597 168.833) scale(49.9465 15.4764)">
<stop stop-color="#F8FE53" stop-opacity="0.5"/>
<stop offset="1" stop-color="#606060" stop-opacity="0"/>
</radialGradient>
<radialGradient id="paint2_radial_890_6962" cx="0" cy="0" r="1" gradientUnits="userSpaceOnUse" gradientTransform="translate(155.468 215.263) scale(49.9465 15.4764)">
<stop stop-color="#F8FE53" stop-opacity="0.5"/>
<stop offset="1" stop-color="#606060" stop-opacity="0"/>
</radialGradient>
<radialGradient id="paint3_radial_890_6962" cx="0" cy="0" r="1" gradientUnits="userSpaceOnUse" gradientTransform="translate(200.489 168.833) scale(49.9465 15.4764)">
<stop stop-color="#F8FE53" stop-opacity="0.5"/>
<stop offset="1" stop-color="#606060" stop-opacity="0"/>
</radialGradient>
<radialGradient id="paint4_radial_890_6962" cx="0" cy="0" r="1" gradientUnits="userSpaceOnUse" gradientTransform="translate(260.989 208.228) scale(49.9465 15.4764)">
<stop stop-color="#F8FE53" stop-opacity="0.5"/>
<stop offset="1" stop-color="#606060" stop-opacity="0"/>
</radialGradient>
<radialGradient id="paint5_radial_890_6962" cx="0" cy="0" r="1" gradientUnits="userSpaceOnUse" gradientTransform="translate(101.145 165.133) rotate(-90) scale(190 101.518)">
<stop stop-color="#4A7A4C"/>
<stop offset="0.604551" stop-color="#669F4C"/>
<stop offset="1" stop-color="#ADFF4A"/>
</radialGradient>
<radialGradient id="paint6_radial_890_6962" cx="0" cy="0" r="1" gradientUnits="userSpaceOnUse" gradientTransform="translate(101.145 165.133) rotate(-90) scale(190 101.518)">
<stop stop-color="#4A7A4C"/>
<stop offset="0.604551" stop-color="#669F4C"/>
<stop offset="1" stop-color="#ADFF4A"/>
</radialGradient>
<radialGradient id="paint7_radial_890_6962" cx="0" cy="0" r="1" gradientUnits="userSpaceOnUse" gradientTransform="translate(201.037 165.133) rotate(-90) scale(190 101.518)">
<stop stop-color="#4A7A4C"/>
<stop offset="0.604551" stop-color="#669F4C"/>
<stop offset="1" stop-color="#ADFF4A"/>
</radialGradient>
<radialGradient id="paint8_radial_890_6962" cx="0" cy="0" r="1" gradientUnits="userSpaceOnUse" gradientTransform="translate(201.037 165.133) rotate(-90) scale(190 101.518)">
<stop stop-color="#4A7A4C"/>
<stop offset="0.604551" stop-color="#669F4C"/>
<stop offset="1" stop-color="#ADFF4A"/>
</radialGradient>
<radialGradient id="paint9_radial_890_6962" cx="0" cy="0" r="1" gradientUnits="userSpaceOnUse" gradientTransform="translate(261.536 204.528) rotate(-90) scale(190 101.518)">
<stop stop-color="#4A7A4C"/>
<stop offset="0.604551" stop-color="#669F4C"/>
<stop offset="1" stop-color="#ADFF4A"/>
</radialGradient>
<radialGradient id="paint10_radial_890_6962" cx="0" cy="0" r="1" gradientUnits="userSpaceOnUse" gradientTransform="translate(261.536 204.528) rotate(-90) scale(190 101.518)">
<stop stop-color="#4A7A4C"/>
<stop offset="0.604551" stop-color="#669F4C"/>
<stop offset="1" stop-color="#ADFF4A"/>
</radialGradient>
<radialGradient id="paint11_radial_890_6962" cx="0" cy="0" r="1" gradientUnits="userSpaceOnUse" gradientTransform="translate(156.016 211.562) rotate(-90) scale(190 101.518)">
<stop stop-color="#4A7A4C"/>
<stop offset="0.604551" stop-color="#669F4C"/>
<stop offset="1" stop-color="#ADFF4A"/>
</radialGradient>
<radialGradient id="paint12_radial_890_6962" cx="0" cy="0" r="1" gradientUnits="userSpaceOnUse" gradientTransform="translate(156.016 211.562) rotate(-90) scale(190 101.518)">
<stop stop-color="#4A7A4C"/>
<stop offset="0.604551" stop-color="#669F4C"/>
<stop offset="1" stop-color="#ADFF4A"/>
</radialGradient>
<radialGradient id="paint13_radial_890_6962" cx="0" cy="0" r="1" gradientUnits="userSpaceOnUse" gradientTransform="translate(50.4941 196.086) rotate(-90) scale(190 101.518)">
<stop stop-color="#4A7A4C"/>
<stop offset="0.604551" stop-color="#669F4C"/>
<stop offset="1" stop-color="#ADFF4A"/>
</radialGradient>
<radialGradient id="paint14_radial_890_6962" cx="0" cy="0" r="1" gradientUnits="userSpaceOnUse" gradientTransform="translate(50.4941 196.086) rotate(-90) scale(190 101.518)">
<stop stop-color="#4A7A4C"/>
<stop offset="0.604551" stop-color="#669F4C"/>
<stop offset="1" stop-color="#ADFF4A"/>
</radialGradient>
</defs>
</svg>
