<svg width="90" height="169" viewBox="0 0 90 169" fill="none" xmlns="http://www.w3.org/2000/svg">
<path d="M40.2966 162.235C40.2966 165.551 42.4101 168.301 44.9571 168.303C47.5048 168.303 49.6176 165.552 49.6176 162.235V129.879H40.2966V162.235Z" fill="#4A7A4C"/>
<path d="M40.2966 162.235C40.2966 165.551 42.4101 168.301 44.9571 168.303C47.5048 168.303 49.6176 165.552 49.6176 162.235V129.879H40.2966V162.235Z" fill="url(#paint0_radial_890_6958)"/>
<path d="M50.5586 4.24721C47.5138 -1.41574 42.4116 -1.41574 39.3667 4.24721L13.4539 51.493C9.17041 59.2569 11.7246 65.6467 19.0554 65.6467H27.6146L2.8333 111.019C-2.94573 121.374 0.409238 129.868 10.2274 129.868H79.698C89.5155 129.868 92.8705 121.373 87.0921 111.019L62.3107 65.6467H70.8699C78.2007 65.6467 80.7548 59.2568 76.4715 51.493L50.5586 4.24721Z" fill="#4A7A4C"/>
<path d="M50.5586 4.24721C47.5138 -1.41574 42.4116 -1.41574 39.3667 4.24721L13.4539 51.493C9.17041 59.2569 11.7246 65.6467 19.0554 65.6467H27.6146L2.8333 111.019C-2.94573 121.374 0.409238 129.868 10.2274 129.868H79.698C89.5155 129.868 92.8705 121.373 87.0921 111.019L62.3107 65.6467H70.8699C78.2007 65.6467 80.7548 59.2568 76.4715 51.493L50.5586 4.24721Z" fill="url(#paint1_radial_890_6958)"/>
<defs>
<radialGradient id="paint0_radial_890_6958" cx="0" cy="0" r="1" gradientUnits="userSpaceOnUse" gradientTransform="translate(44.8662 165.133) rotate(-90) scale(190 101.518)">
<stop stop-color="#4A7A4C"/>
<stop offset="0.604551" stop-color="#669F4C"/>
<stop offset="1" stop-color="#ADFF4A"/>
</radialGradient>
<radialGradient id="paint1_radial_890_6958" cx="0" cy="0" r="1" gradientUnits="userSpaceOnUse" gradientTransform="translate(44.8662 165.133) rotate(-90) scale(190 101.518)">
<stop stop-color="#4A7A4C"/>
<stop offset="0.604551" stop-color="#669F4C"/>
<stop offset="1" stop-color="#ADFF4A"/>
</radialGradient>
</defs>
</svg>
